<svg xmlns="http://www.w3.org/2000/svg" xmlns:xlink="http://www.w3.org/1999/xlink" width="1080" zoomAndPan="magnify" viewBox="0 0 810 809.999993" height="1080" preserveAspectRatio="xMidYMid meet" version="1.0"><defs><g/></defs><g fill="#f14d00" fill-opacity="1"><g transform="translate(-29.999995, 646.051683)"><g><path d="M 154.6875 20.9375 C 152.4375 2.476562 150.75 -17.671875 149.625 -39.515625 C 148.5 -61.359375 147.9375 -81.734375 147.9375 -100.640625 C 147.9375 -130.816406 148.945312 -159.75 150.96875 -187.4375 C 153 -215.132812 155.476562 -244.179688 158.40625 -274.578125 C 161.332031 -304.972656 164.59375 -338.070312 168.1875 -373.875 C 171.789062 -409.675781 174.945312 -450.992188 177.65625 -497.828125 C 183.507812 -497.828125 191.953125 -496.140625 202.984375 -492.765625 C 214.015625 -489.390625 225.160156 -485.445312 236.421875 -480.9375 C 247.679688 -476.4375 257.585938 -471.820312 266.140625 -467.09375 C 274.691406 -462.363281 279.644531 -458.425781 281 -455.28125 C 273.34375 -437.71875 266.472656 -414.632812 260.390625 -386.03125 C 254.316406 -357.4375 249.253906 -326.253906 245.203125 -292.484375 C 241.148438 -258.710938 237.992188 -224.035156 235.734375 -188.453125 C 233.484375 -152.878906 232.359375 -119.554688 232.359375 -88.484375 C 232.359375 -74.078125 232.582031 -59.894531 233.03125 -45.9375 C 233.488281 -31.976562 234.164062 -19.144531 235.0625 -7.4375 C 244.519531 -21.394531 255.441406 -41.316406 267.828125 -67.203125 C 280.210938 -93.097656 293.046875 -122.03125 306.328125 -154 C 319.617188 -185.976562 332.90625 -219.414062 346.1875 -254.3125 C 359.46875 -289.21875 371.738281 -322.539062 383 -354.28125 C 394.257812 -386.03125 403.828125 -414.628906 411.703125 -440.078125 C 419.585938 -465.523438 425.101562 -484.773438 428.25 -497.828125 C 434.101562 -497.828125 442.769531 -496.140625 454.25 -492.765625 C 465.738281 -489.390625 477 -485.445312 488.03125 -480.9375 C 499.070312 -476.4375 508.867188 -471.820312 517.421875 -467.09375 C 525.972656 -462.363281 530.703125 -458.425781 531.609375 -455.28125 C 523.953125 -437.71875 517.082031 -414.632812 511 -386.03125 C 504.925781 -357.4375 499.859375 -326.253906 495.796875 -292.484375 C 491.742188 -258.710938 488.59375 -224.035156 486.34375 -188.453125 C 484.09375 -152.878906 482.96875 -119.554688 482.96875 -88.484375 C 482.96875 -75.429688 483.078125 -62.484375 483.296875 -49.640625 C 483.523438 -36.804688 484.09375 -25.210938 485 -14.859375 C 499.40625 -52.234375 514.375 -89.269531 529.90625 -125.96875 C 545.445312 -162.675781 560.875 -197.800781 576.1875 -231.34375 C 591.5 -264.894531 606.359375 -296.191406 620.765625 -325.234375 C 635.179688 -354.285156 648.46875 -380.179688 660.625 -402.921875 C 672.78125 -425.660156 683.359375 -444.460938 692.359375 -459.328125 C 701.367188 -474.191406 708.351562 -484.097656 713.3125 -489.046875 C 723.664062 -487.703125 734.359375 -483.988281 745.390625 -477.90625 C 756.429688 -471.820312 766.226562 -464.050781 774.78125 -454.59375 C 761.71875 -444.238281 746.851562 -427.238281 730.1875 -403.59375 C 713.53125 -379.957031 696.421875 -352.601562 678.859375 -321.53125 C 661.296875 -290.457031 643.617188 -257.359375 625.828125 -222.234375 C 608.046875 -187.109375 591.5 -152.882812 576.1875 -119.5625 C 560.875 -86.238281 547.25 -55.164062 535.3125 -26.34375 C 523.382812 2.476562 514.269531 25.671875 507.96875 43.234375 C 496.257812 48.640625 484.773438 51.34375 473.515625 51.34375 C 459.109375 49.539062 445.484375 45.9375 432.640625 40.53125 C 419.804688 35.125 410.691406 28.59375 405.296875 20.9375 C 403.941406 13.726562 402.8125 5.285156 401.90625 -4.390625 C 401.007812 -14.066406 400.335938 -23.632812 399.890625 -33.09375 C 399.441406 -42.550781 399.101562 -51.671875 398.875 -60.453125 C 398.644531 -69.234375 398.53125 -76.773438 398.53125 -83.078125 C 398.53125 -123.160156 400.109375 -164.03125 403.265625 -205.6875 C 406.421875 -247.34375 410.25 -292.035156 414.75 -339.765625 C 404.394531 -309.140625 392.910156 -276.265625 380.296875 -241.140625 C 367.691406 -206.015625 354.519531 -171.226562 340.78125 -136.78125 C 327.039062 -102.332031 313.078125 -69.457031 298.890625 -38.15625 C 284.710938 -6.863281 270.867188 20.265625 257.359375 43.234375 C 245.648438 48.640625 234.164062 51.34375 222.90625 51.34375 C 208.5 49.539062 194.878906 45.9375 182.046875 40.53125 C 169.210938 35.125 160.09375 28.59375 154.6875 20.9375 Z M 154.6875 20.9375 "/></g></g></g></svg>